<svg version="1.1" id="logo" xmlns="http://www.w3.org/2000/svg" xmlns:xlink="http://www.w3.org/1999/xlink" x="0px" y="0px"
	 viewBox="0 0 210.4 206.3" style="enable-background:new 0 0 210.4 206.3;" xml:space="preserve">
<style type="text/css">
	.st0{fill:#FFFFFF;}
	.st1{fill:#8FC7E8;}
</style>
<g>
	<path class="st0" d="M200.1,98.6c0,0-5.3,12.1-13,23.2c-6.5,9.3-19.3,27.6-45.8,37.8c22.4-13.9,29.5-22.1,37.3-33.8
		c9-13.5,12.5-22.8,15.2-36.7c2.7-13.9,3.3-36.2,3.3-36.2l-12-0.1c0,0,1.6,13.1,0.6,26.4c-0.9,11.4-2.6,34.1-21.2,56.2
		c-7.1,8.4-15.4,16.4-26.9,22.8c-16,8.8-32.4,11.6-32.4,11.6c28.4-1,38.9-4.6,52.1-11.2c14.7-7.3,22.4-13.6,31.9-24.4
		c9.4-10.7,21.3-29.7,21.3-29.7L200.1,98.6z"/>
	<path class="st1" d="M162,171.2c13.6-4.7,33.7-15.3,33.7-15.3l-5.9-10.2c0,0-10.8,7.9-23.1,13.7c-10.4,4.9-31.1,14.6-59.5,10.2
		c24.4-0.7,45.6-13.9,57-33.4l0,0c0-0.1,0.1-0.1,0.1-0.2c0.8-1.3,1.5-2.7,2.2-4.1c11.2-21.5,13.1-31.8,13.8-45.3
		c0.9-16.1-0.9-25.8-5.6-39.2c-4.8-13.3-15.6-32.9-15.6-32.9l-10.4,5.8c0,0,8.1,10.5,14,22.6c5,10.1,14.8,30.1,10.5,57.7
		c-1.2-25.9-4.8-36.1-11.3-48.5c-7.5-14.4-14-21.9-24.9-31.2C126.1,11.7,106.7,0,106.7,0l-6.1,10.1c0,0,12.4,5.2,23.7,12.7
		c9.5,6.4,28.4,18.9,38.7,45.1c-0.1-0.2-0.3-0.4-0.4-0.7c-0.4-0.6-0.7-1.1-1.1-1.7c-13.4-20.2-21.6-26.9-33.2-34.3
		C114.5,22.5,105,19,90.8,16.4c-14.2-2.6-37-3.2-37-3.2l-0.1,11.7c0,0,13.4-1.6,27-0.6c11.5,0.8,34.1,2.5,56.3,19.9
		c-0.1,0-0.1-0.1-0.2-0.1c-23.4-11.9-34.1-13.8-48.4-14.6C72,28.7,62,30.4,48.4,35c-13.6,4.7-33.7,15.3-33.7,15.3l5.9,10.2
		c0,0,10.8-7.9,23.1-13.7c10.4-4.9,31.1-14.6,59.5-10.2c-1.7,0.1-3.5,0.1-5.2,0.3c-23,1.3-32.8,4.9-44.7,10.8
		C38.6,55,30.8,61.3,21.3,72C11.9,82.7,0,101.7,0,101.7l10.3,6c0,0,5.3-12.1,13-23.2c6.4-9.2,19.2-27.5,45.4-37.6c-1,0.6-2,1.3-3,2
		C46,61.6,39.2,69.5,31.8,80.6c-9,13.5-12.5,22.8-15.2,36.7c-2.7,13.9-3.3,36.2-3.3,36.2l12,0.1c0,0-1.6-13.1-0.6-26.4
		C25.6,116,27.3,94,44.8,72.3c-0.1,0.2-0.2,0.5-0.3,0.7C32.7,95.4,30.8,105.8,30,119.6c-0.9,16.1,0.9,25.8,5.6,39.2
		c4.8,13.3,15.6,32.9,15.6,32.9l10.4-5.8c0,0-8.1-10.5-14-22.6c-5-10.1-14.8-30.1-10.5-57.7c1.2,25.9,4.8,36.1,11.3,48.5
		c7.5,14.4,14,21.9,24.9,31.2c10.9,9.2,30.4,20.9,30.4,20.9l6.1-10.1c0,0-12.4-5.2-23.7-12.7c-9.5-6.4-28.4-18.9-38.7-45
		c14.3,22,22.7,29,34.7,36.6c13.8,8.8,23.3,12.2,37.5,14.8c14.2,2.6,37,3.2,37,3.2l0.1-11.7c0,0-13.4,1.6-27,0.6
		c-11.5-0.8-34.1-2.5-56.3-19.9c23.5,12,34.3,14,48.6,14.7C138.4,177.5,148.4,175.9,162,171.2z M105.3,42.8
		c34.1,0,61.7,27,61.7,60.3s-27.6,60.3-61.7,60.3s-61.7-27-61.7-60.3S71.2,42.8,105.3,42.8z"/>
</g>
</svg>
