<?xml version="1.0" encoding="UTF-8"?>
<svg id="Layer_1" xmlns="http://www.w3.org/2000/svg" version="1.1" viewBox="0 0 3313.36 908.2">
  <!-- Generator: Adobe Illustrator 29.3.1, SVG Export Plug-In . SVG Version: 2.1.0 Build 151)  -->
  <defs>
    <style>
      .st0 {
        fill: #1d1d1b;
      }
    </style>
  </defs>
  <path class="st0" d="M3111.67,391.4c-41.84,0-72.55-25.45-72.55-76.36,0-45.64,26.91-78.7,72.55-78.7s67.87,33.06,67.87,78.99v7.61h-109.71c2.63,28.09,17.56,41.54,42.42,41.54,17.85,0,28.67-7.02,34.81-21.06h31.3c-8.78,31.89-33.06,47.98-66.7,47.98ZM3071,298.37h77.23c-2.05-21.65-13.17-35.4-36.57-35.4s-36.57,13.46-40.67,35.4Z"/>
  <path class="st0" d="M2948.42,389.31v-149.2h30.14v27.5c5.85-17.85,19.31-29.26,40.37-29.26h12.29v30.43h-11.7c-29.55,0-39.79,18.72-39.79,47.69v72.85h-31.3Z"/>
  <path class="st0" d="M2847.82,392.53c-43.88,0-73.43-29.26-73.43-77.53s29.55-77.53,73.43-77.53,73.43,29.26,73.43,77.53-29.55,77.53-73.43,77.53ZM2806.28,315c0,31.89,16.97,48.27,41.54,48.27s41.55-16.38,41.55-48.27-16.97-48.27-41.55-48.27-41.54,16.09-41.54,48.27Z"/>
  <path class="st0" d="M2607.63,445.48v-205.38h30.14v28.38c7.31-18.43,24.87-31.01,50.32-31.01,36.28,0,66.41,24.28,66.41,75.77s-30.72,76.06-67.58,76.06c-25.46,0-40.08-11.41-47.98-24.57v80.75h-31.3ZM2638.65,313.25c0,33.06,19.31,47.39,42.42,47.39s41.54-14.34,41.54-47.39-17.85-46.52-41.54-46.52-42.42,13.75-42.42,46.52Z"/>
  <path class="st0" d="M2507.04,392.53c-43.88,0-73.43-29.26-73.43-77.53s29.55-77.53,73.43-77.53,73.43,29.26,73.43,77.53-29.55,77.53-73.43,77.53ZM2465.5,315c0,31.89,16.97,48.27,41.54,48.27s41.54-16.38,41.54-48.27-16.97-48.27-41.54-48.27-41.54,16.09-41.54,48.27Z"/>
  <path class="st0" d="M2276.06,389.31v-149.2h30.13v25.75c9.07-17.85,26.62-28.38,50.9-28.38,33.94,0,50.9,19.89,50.9,53.25v98.59h-31.3v-93.62c0-20.48-12.29-30.72-29.84-30.72-22.24,0-39.49,16.09-39.49,44.18v80.16h-31.3Z"/>
  <path class="st0" d="M2159.23,390.27c-28.38,0-49.44-15.21-49.44-43.88,0-31.6,24.57-41.54,47.69-44.76l33.06-4.39c10.83-1.46,19.89-4.1,19.89-16.38,0-13.46-9.65-20.77-29.55-20.77-22.52,0-33.93,8.78-36.86,23.7h-31.01c4.68-33.06,30.13-48.56,69.04-48.56s59.68,15.8,59.68,49.44v102.39h-29.25v-26.92c-9.65,18.43-27.5,30.13-53.25,30.13ZM2141.39,344.04c0,13.46,10.24,19.89,25.45,19.89,24.57,0,43.59-15.8,43.59-40.08v-9.36c-5.56,2.34-11.99,3.8-23.11,5.56l-19.6,2.63c-11.41,1.46-26.33,4.97-26.33,21.36Z"/>
  <path class="st0" d="M1911.74,387.05v-204.79h38.32l95.37,155.64v-155.64h32.18v204.79h-36.86l-97.13-157.4v157.4h-31.89Z"/>
  <path class="st0" d="M1734.2,390.27c-44.18,0-67.29-34.52-67.29-77.53s23.41-77.53,67.88-77.53c23.69,0,39.79,9.95,47.69,25.16v-81.33h31.3v208.01h-29.55v-27.21c-6.73,16.68-21.94,30.43-50.03,30.43ZM1698.8,312.16c0,27.5,12.87,49.44,41.25,49.44s42.71-22.53,42.71-50.03-13.75-48.27-42.42-48.27-41.54,21.94-41.54,48.86Z"/>
  <path class="st0" d="M1576.22,387.05v-149.2h30.13v27.5c5.85-17.85,19.31-29.26,40.37-29.26h12.29v30.43h-11.7c-29.55,0-39.79,18.72-39.79,47.69v72.85h-31.3Z"/>
  <path class="st0" d="M1475.62,390.27c-43.88,0-73.43-29.26-73.43-77.53s29.55-77.53,73.43-77.53,73.43,29.26,73.43,77.53-29.55,77.53-73.43,77.53ZM1434.08,312.74c0,31.89,16.97,48.27,41.54,48.27s41.55-16.38,41.55-48.27-16.97-48.27-41.55-48.27-41.54,16.09-41.54,48.27Z"/>
  <path class="st0" d="M1330.57,387.05v-121.7h-23.7v-27.5h23.7v-16.97c0-28.67,13.46-41.84,38.91-41.84h26.04v26.62h-18.14c-11.7,0-15.5,4.97-15.5,16.68v15.51h29.84v27.5h-29.84v121.7h-31.3Z"/>
  <path class="st0" d="M1146.2,387.05l58.22-76.65-55.29-72.55h38.62l35.4,48.86,35.4-48.86h38.61l-55.29,72.55,58.22,76.65h-38.91l-38.04-52.66-38.03,52.66h-38.91Z"/>
  <path class="st0" d="M1034.46,392.32c-65.54,0-100.35-50.03-100.35-107.66s34.81-107.37,100.35-107.37,100.64,49.74,100.64,107.37-34.81,107.66-100.64,107.66ZM967.17,284.66c0,43.3,22.24,77.82,67.29,77.82s67.58-34.52,67.58-77.82-22.23-77.53-67.58-77.53-67.29,34.23-67.29,77.53Z"/>
  <path class="st0" d="M451.45,658.38c156.71-13.51,287.9-126.05,326.51-279.99l.59-2.15-41.76-14.39-.39,2.94c-17.04,117.24-93.77,214.82-200.14,262.57,13.69-8.51,26.4-18.49,37.82-29.65,118.68-102.37,158.28-270.11,98.49-417.2l-.88-2.06-42.35,12.72,1.38,2.64c55.55,104.72,51.22,228.42-6.5,329.12,5.91-14.58,10.35-29.95,13-45.9,35.46-152.18-31.72-311.02-167.15-395.08l-1.87-1.17-26.69,34.94,2.66,1.27c107.26,52.46,176.99,155.41,189.7,270.89-3.94-15.95-9.65-31.22-16.85-45.6-61.16-143.86-209.4-233.02-368.76-221.96l-2.26.2-.89,43.94,2.95-.49c117.9-20.26,235.4,22.41,314,108.63-12.51-10.57-26.2-19.67-40.87-27.3-134.74-80.54-307.5-66.16-429.73,35.82l-1.67,1.47,25.21,36.01,2.07-2.15c83.23-85.04,203.1-119.1,317.45-95.52-5.22-.39-10.44-.59-15.76-.59-11.13,0-22.06.88-32.7,2.45-156.61,13.41-287.8,125.95-326.41,279.89l-.59,2.15,41.76,14.39.39-2.94c17.04-117.34,93.77-214.81,200.14-262.57-13.69,8.51-26.4,18.5-37.82,29.65-118.78,102.37-158.28,270.11-98.49,417.2l.89,2.06,42.25-12.72-1.38-2.64c-55.55-104.81-51.22-228.42,6.5-329.12-5.91,14.58-10.34,29.95-13,45.9-35.46,152.18,31.72,311.01,167.15,395.08l1.87,1.18,26.69-34.94-2.66-1.27c-107.26-52.46-177-155.41-189.7-270.89,3.94,15.95,9.65,31.22,16.84,45.6,57.91,135.84,193.35,222.94,342.27,222.94,8.87,0,17.73-.3,26.59-.88l2.27-.19.89-43.94-2.96.49c-117.9,20.26-235.4-22.41-314-108.63,12.51,10.57,26.2,19.67,40.88,27.31,58.11,34.74,123.32,51.87,188.52,51.87,85.89,0,171.77-29.66,241.31-87.69l1.67-1.47-25.21-36.02-2.07,2.15c-83.23,85.04-203.1,119.1-317.55,95.52,5.22.39,10.44.59,15.76.59,11.13,0,22.06-.88,32.7-2.45h-.1ZM216.83,440.53c0-110.69,90.62-200.62,201.91-200.62s201.91,90.04,201.91,200.62-90.61,200.63-201.91,200.63-201.91-90.04-201.91-200.63Z"/>
  <g>
    <path class="st0" d="M2610.79,701.4c-33.35,0-65.24-14.63-68.75-49.44h31.59c3.22,17.55,18.73,24.58,38.33,24.58,17.85,0,28.67-5.56,28.67-18.14s-11.41-16.68-27.21-19.6l-20.18-3.51c-23.7-4.39-47.69-13.17-47.69-43.88s23.4-45.05,59.1-45.05,60.56,16.09,63.49,47.4h-31.3c-1.75-16.09-14.63-23.11-33.35-23.11s-27.79,6.73-27.79,18.43c0,13.17,11.12,17.26,26.62,20.18l20.77,3.8c23.99,4.39,47.98,12,47.98,41.83,0,31.6-26.92,46.52-60.27,46.52Z"/>
    <path class="st0" d="M2458.84,701.4c-41.83,0-72.55-25.45-72.55-76.35,0-45.64,26.92-78.7,72.55-78.7s67.87,33.06,67.87,78.99v7.6h-109.71c2.63,28.08,17.55,41.54,42.42,41.54,17.84,0,28.67-7.02,34.81-21.06h31.3c-8.78,31.89-33.06,47.98-66.7,47.98ZM2418.18,608.37h77.23c-2.05-21.65-13.17-35.4-36.57-35.4s-36.57,13.46-40.67,35.4Z"/>
    <path class="st0" d="M2329,698.19v-149.2h31.3v149.2h-31.3ZM2327.83,524.11v-34.23h33.35v34.23h-33.35Z"/>
    <path class="st0" d="M2221.91,757.58c-37.45,0-67-18.72-71.09-52.66h31.6c2.34,16.09,15.21,27.5,39.79,27.5,26.33,0,41.54-12.58,41.54-39.5v-27.5c-9.07,18.43-28.67,27.8-50.03,27.8-35.11,0-66.41-23.41-66.41-72.55s32.77-74.31,68.75-74.31c24.28,0,40.08,11.41,47.4,24.58v-21.94h30.72v140.72c0,46.22-31.3,67.87-72.26,67.87ZM2179.19,620.95c0,30.72,19.02,45.35,41.54,45.35,21.36,0,42.13-12.87,42.13-45.35s-19.02-46.22-41.25-46.22-42.42,14.33-42.42,46.22Z"/>
    <path class="st0" d="M2056.07,701.4c-43.88,0-73.43-29.25-73.43-77.53s29.55-77.53,73.43-77.53,73.43,29.26,73.43,77.53-29.55,77.53-73.43,77.53ZM2014.53,623.88c0,31.89,16.97,48.27,41.54,48.27s41.54-16.38,41.54-48.27-16.97-48.27-41.54-48.27-41.54,16.09-41.54,48.27Z"/>
    <path class="st0" d="M1924.52,698.19v-208.01h31.3v208.01h-31.3Z"/>
    <path class="st0" d="M1823.93,701.4c-43.88,0-73.43-29.25-73.43-77.53s29.55-77.53,73.43-77.53,73.43,29.26,73.43,77.53-29.55,77.53-73.43,77.53ZM1782.39,623.88c0,31.89,16.97,48.27,41.54,48.27s41.54-16.38,41.54-48.27-16.97-48.27-41.54-48.27-41.54,16.09-41.54,48.27Z"/>
    <path class="st0" d="M1592.95,698.19v-149.2h30.13v25.75c9.07-17.85,26.62-28.38,50.9-28.38,33.94,0,50.9,19.9,50.9,53.25v98.59h-31.3v-93.62c0-20.48-12.28-30.72-29.84-30.72-22.23,0-39.5,16.09-39.5,44.18v80.16h-31.3Z"/>
    <path class="st0" d="M1425.17,698.19v-208.01h31.3v83.38c9.07-17.26,26.03-27.21,49.73-27.21,33.93,0,50.9,19.9,50.9,53.25v98.59h-31.3v-93.62c0-20.48-12.29-30.72-29.84-30.72-22.23,0-39.49,16.09-39.49,44.18v80.16h-31.3Z"/>
    <path class="st0" d="M1330.52,701.4c-48.27,0-71.09-34.52-71.09-76.35s24.87-78.7,73.72-78.7c37.74,0,62.9,20.77,64.95,55.29h-31.89c-1.17-18.14-14.04-27.79-33.06-27.79-30.13,0-41.83,21.94-41.83,50.03s11.99,49.73,40.66,49.73c20.19,0,32.48-9.95,34.23-28.96h31.89c-2.63,35.11-29.26,56.75-67.58,56.75Z"/>
    <path class="st0" d="M1174.77,701.4c-41.83,0-72.55-25.45-72.55-76.35,0-45.64,26.92-78.7,72.55-78.7s67.87,33.06,67.87,78.99v7.6h-109.71c2.63,28.08,17.55,41.54,42.42,41.54,17.85,0,28.67-7.02,34.82-21.06h31.3c-8.78,31.89-33.06,47.98-66.7,47.98ZM1134.1,608.37h77.23c-2.05-21.65-13.17-35.4-36.57-35.4s-36.57,13.46-40.67,35.4Z"/>
    <path class="st0" d="M1012.06,698.19v-174.65h-71.81v-30.13h175.79v30.13h-71.81v174.65h-32.18Z"/>
  </g>
</svg>